# xmcd
#
# Track frame offsets:
#	183
#	13483
#	26983
#	37833
#	50245
#	62920
#	76308
#	88795
#	101358
#	113433
#	125283
#	137433
#	150708
#	163308
#	178608
#	206620
#	220283
#	246070
#	262345
#	276183
#
# Disc length: 3992
#
# Revision: 3
# Processed by: cddbd v1.5.1PL0 Copyright (c) Steve Scherf et al.
# Submitted via: audiograbber 1.83.01
# Normalized: r2:TDELIM( - ),TSWAP
#
DISCID=230f9614
DTITLE=Various Artist - The Essential History of Electric Blues
DYEAR=1990
DGENRE=Blues
TTITLE0=Elmore James - Dust My Broom
TTITLE1=Elmore James - Standing at the Crossroads
TTITLE2=Elmore James - Coming Home
TTITLE3=Elmore James - Blues Before Sunrise
TTITLE4=BB King - Mistreated Woman
TTITLE5=BB King - Sweet Little Angel
TTITLE6=BB King - Everyday I Have the Blues
TTITLE7=BB King - Rock Me Baby
TTITLE8=Muddy Waters - Mean Mistreater
TTITLE9=Muddy Waters - Baby Please Don't Go
TTITLE10=Muddy Waters - Got My Mojo Working
TTITLE11=Muddy Waters - I'm Your Hoochie Coochie Man
TTITLE12=Howlin' Wolf - Ain't Superstitious
TTITLE13=Howlin' Wolf - Killing Floor
TTITLE14=Howlin' Wolf - Going Down Slow
TTITLE15=Howlin' Wolf - Higway 49
TTITLE16=Sonny Boy Williamson - Take It Easy Baby
TTITLE17=Sonny Boy Williamson - Bye Bye Bird
TTITLE18=Sonny Boy Williamson - Out On The Water Coast
TTITLE19=Sonny Boy Williamson - 23 Hours Too Long
EXTD=dejavu
EXTT0=
EXTT1=
EXTT2=
EXTT3=
EXTT4=
EXTT5=
EXTT6=
EXTT7=
EXTT8=
EXTT9=
EXTT10=
EXTT11=
EXTT12=
EXTT13=
EXTT14=
EXTT15=
EXTT16=
EXTT17=
EXTT18=
EXTT19=
PLAYORDER=
